<svg xmlns="http://www.w3.org/2000/svg" viewBox="0 0 80 160">
  <defs>
    <linearGradient id="rg" x1="20%" y1="5%" x2="80%" y2="95%">
      <stop offset="0%" stop-color="#FDE878"/>
      <stop offset="45%" stop-color="#C99010"/>
      <stop offset="100%" stop-color="#6E4E00"/>
    </linearGradient>
    <radialGradient id="rh" cx="68%" cy="22%" r="52%">
      <stop offset="0%" stop-color="#FFFCE0" stop-opacity="0.9"/>
      <stop offset="100%" stop-color="#FDE878" stop-opacity="0"/>
    </radialGradient>
  </defs>

  <!-- Mirrored left branch -->
  <g transform="scale(-1,1) translate(-80,0)">
    <path d="M57,153 C49,124 35,86 22,10" stroke="#8C6400" stroke-width="2.2" fill="none" stroke-linecap="round"/>
    <g transform="translate(52,128) rotate(-20)">
      <path d="M0,-14 C8,-9 8,9 0,14 C-8,9 -8,-9 0,-14 Z" fill="url(#rg)"/>
      <path d="M0,-14 C8,-9 8,9 0,14 C-8,9 -8,-9 0,-14 Z" fill="url(#rh)"/>
    </g>
    <g transform="translate(40,104) rotate(-35)">
      <path d="M0,-14 C8,-9 8,9 0,14 C-8,9 -8,-9 0,-14 Z" fill="url(#rg)"/>
      <path d="M0,-14 C8,-9 8,9 0,14 C-8,9 -8,-9 0,-14 Z" fill="url(#rh)"/>
    </g>
    <g transform="translate(30,80) rotate(-50)">
      <path d="M0,-14 C8,-9 8,9 0,14 C-8,9 -8,-9 0,-14 Z" fill="url(#rg)"/>
      <path d="M0,-14 C8,-9 8,9 0,14 C-8,9 -8,-9 0,-14 Z" fill="url(#rh)"/>
    </g>
    <g transform="translate(23,57) rotate(-62)">
      <path d="M0,-14 C8,-9 8,9 0,14 C-8,9 -8,-9 0,-14 Z" fill="url(#rg)"/>
      <path d="M0,-14 C8,-9 8,9 0,14 C-8,9 -8,-9 0,-14 Z" fill="url(#rh)"/>
    </g>
    <g transform="translate(20,34) rotate(-72)">
      <path d="M0,-12 C7,-8 7,8 0,12 C-7,8 -7,-8 0,-12 Z" fill="url(#rg)"/>
      <path d="M0,-12 C7,-8 7,8 0,12 C-7,8 -7,-8 0,-12 Z" fill="url(#rh)"/>
    </g>
  </g>
</svg>
